<svg xmlns="http://www.w3.org/2000/svg" width="177.208" height="30" viewBox="0 0 177.208 30">
  <g id="Group_7774" data-name="Group 7774" transform="translate(-83.094 -193.5)">
    <path id="Path_4275" data-name="Path 4275" d="M84.544,224.56a1.093,1.093,0,0,1-.947-1.64l-.191.331a2.913,2.913,0,0,0,0,2.624l3.787,6.559a1.942,1.942,0,0,0,1.515.875h8.079a1.943,1.943,0,0,0,1.515-.875l1.515-2.624a1.943,1.943,0,0,0,0-1.749L98.3,225.438a1.941,1.941,0,0,0-1.515-.875l-4.039,0Z" transform="translate(0 -9.83)" fill="#943bba"/>
    <path id="Path_4276" data-name="Path 4276" d="M101.561,231.381a1.093,1.093,0,1,1,1.093,1.094,1.093,1.093,0,0,1-1.093-1.094" transform="translate(-6.128 -12.275)" fill="#fff"/>
    <path id="Path_4277" data-name="Path 4277" d="M122.249,228.174a1.093,1.093,0,0,1-.947,1.639h.382a2.911,2.911,0,0,0,2.272-1.312l3.787-6.559a1.943,1.943,0,0,0,0-1.749l-4.04-7a1.943,1.943,0,0,0-1.515-.875h-3.03a1.943,1.943,0,0,0-1.515.875l-1.515,2.624a1.939,1.939,0,0,0,0,1.749l2.017,3.5Z" transform="translate(-10.893 -6.313)" fill="#7eaf00"/>
    <path id="Path_4278" data-name="Path 4278" d="M122.1,217.645a1.093,1.093,0,1,1,.4-1.493,1.093,1.093,0,0,1-.4,1.493" transform="translate(-12.399 -7.371)" fill="#fff"/>
    <path id="Path_4279" data-name="Path 4279" d="M107.663,195.143a1.094,1.094,0,0,1,1.894,0l-.191-.33a2.912,2.912,0,0,0-2.272-1.313H99.519a1.942,1.942,0,0,0-1.515.875l-4.039,7a1.939,1.939,0,0,0,0,1.749l1.515,2.624a1.942,1.942,0,0,0,1.515.875h3.029a1.94,1.94,0,0,0,1.515-.875l2.023-3.5Z" transform="translate(-3.538)" fill="#0091d9"/>
    <path id="Path_4280" data-name="Path 4280" d="M99.934,206.726a1.093,1.093,0,1,1-1.493.4,1.093,1.093,0,0,1,1.493-.4" transform="translate(-5.044 -4.361)" fill="#fff"/>
    <path id="Path_4281" data-name="Path 4281" d="M84.72,221.232a1.093,1.093,0,0,1-.947-1.64l3.555-6.156a1.1,1.1,0,0,1,1.493-.4l5.68,3.28a1.1,1.1,0,0,1,.4,1.493l-1.978,3.423Z" transform="translate(-0.176 -6.475)" fill="#4e1b54"/>
    <path id="Path_4282" data-name="Path 4282" d="M120.848,232.518a1.093,1.093,0,0,1-.947,1.639h-7.109a1.1,1.1,0,0,1-1.093-1.093V226.5a1.1,1.1,0,0,1,1.093-1.092h3.954Z" transform="translate(-9.492 -10.657)" fill="#41631c"/>
    <path id="Path_4283" data-name="Path 4283" d="M112.532,195.688a1.094,1.094,0,0,1,1.894,0l3.554,6.157a1.1,1.1,0,0,1-.4,1.493l-5.681,3.279a1.1,1.1,0,0,1-1.493-.4l-1.976-3.424Z" transform="translate(-8.407 -0.545)" fill="#003a76"/>
    <path id="Path_4284" data-name="Path 4284" d="M232.3,199.126h-6.105a.983.983,0,0,0-.943.7L221.206,213.7l-3.945-13.868a.982.982,0,0,0-.946-.711H209.72a.981.981,0,0,0-.927,1.31l7.351,20.585a.984.984,0,0,0,.927.652h7.835a.981.981,0,0,0,.925-.651l7.394-20.585a.981.981,0,0,0-.926-1.311" transform="translate(-41.911 -1.867)" fill="#e1231a"/>
    <path id="Path_4285" data-name="Path 4285" d="M297.322,198.26c-1.565.046-5.748.434-6.919,3.892a.048.048,0,0,1-.092-.017v-2.25a1.03,1.03,0,0,0-1.03-1.029H283.6a1.03,1.03,0,0,0-1.031,1.029v20.407a1.03,1.03,0,0,0,1.031,1.029h6.289a1.03,1.03,0,0,0,1.031-1.029v-9.275c0-1.713,0-5.049,6.1-5.049l.17.006a.983.983,0,0,0,.793-.354,1.045,1.045,0,0,0,.227-.654l.128-5.7a.98.98,0,0,0-1.012-1" transform="translate(-66.521 -1.579)" fill="#e1231a"/>
    <path id="Path_4286" data-name="Path 4286" d="M156.658,207.794c-.587-.177-2.535-.736-3.16-.84a9.649,9.649,0,0,1-1.921-.482,2.029,2.029,0,0,1-1.273-1.023,1.4,1.4,0,0,1,.776-1.795,4.139,4.139,0,0,1,1.936-.245c.137.009.274.021.411.037A13.2,13.2,0,0,1,158.114,205a.989.989,0,0,0,1.334-.388l1.687-3.059a.958.958,0,0,0,.073-.758.975.975,0,0,0-.5-.578,16.966,16.966,0,0,0-7.846-2.139c-4.936,0-9.668,2.383-9.668,7.722,0,4.006,4.715,6.232,8.339,6.957.6.118,1.2.205,1.783.376a2.586,2.586,0,0,1,1.573.951,1.4,1.4,0,0,1-.04,1.492c-.558.811-1.547.68-2.4.68a13.8,13.8,0,0,1-7-1.934,1,1,0,0,0-.782-.111.983.983,0,0,0-.613.493l-1.737,3.487a.96.96,0,0,0-.059.744.973.973,0,0,0,.492.565,21.8,21.8,0,0,0,9.895,2.457c6.1,0,9.9-2.938,9.9-7.711,0-3.053-2.2-5.282-5.886-6.454" transform="translate(-19.716 -1.519)" fill="#e1231a"/>
    <path id="Path_4287" data-name="Path 4287" d="M322.924,207.794c-.587-.177-2.534-.736-3.161-.84a9.672,9.672,0,0,1-1.921-.482,2.028,2.028,0,0,1-1.272-1.023,1.4,1.4,0,0,1,.776-1.795,4.141,4.141,0,0,1,1.936-.245c.137.009.274.021.411.037A13.2,13.2,0,0,1,324.38,205a.989.989,0,0,0,1.334-.388l1.687-3.059a.961.961,0,0,0,.074-.758.976.976,0,0,0-.5-.578,16.962,16.962,0,0,0-7.845-2.139c-4.936,0-9.668,2.383-9.668,7.722,0,4.006,4.715,6.232,8.339,6.957.6.118,1.2.205,1.783.376a2.586,2.586,0,0,1,1.573.951,1.4,1.4,0,0,1-.039,1.492c-.559.811-1.547.68-2.4.68a13.8,13.8,0,0,1-7-1.934,1,1,0,0,0-.782-.111.98.98,0,0,0-.612.493l-1.737,3.487a.963.963,0,0,0-.059.744.975.975,0,0,0,.492.565,21.8,21.8,0,0,0,9.895,2.457c6.1,0,9.9-2.938,9.9-7.711,0-3.053-2.2-5.282-5.885-6.454" transform="translate(-75.188 -1.519)" fill="#e1231a"/>
    <path id="Path_4288" data-name="Path 4288" d="M186.251,197.981a16.311,16.311,0,0,0-8.635,2.275,1.121,1.121,0,0,0-.547,1c0,.417.645,1.153.645,1.153.333.413.653.838.978,1.259a2.859,2.859,0,0,0,.927.938c.517.246,1.042-.065,1.5-.3a10.094,10.094,0,0,1,4.983-1.089,5.161,5.161,0,0,1,1.863.393,2.729,2.729,0,0,1,.794.524,1.777,1.777,0,0,1,.7,1.562l-.013.923-.325-.011c-.843-.03-1.632-.045-2.345-.045-7.488,0-10.038,2.709-10.493,7.877a6.105,6.105,0,0,0,1.58,4.571c1.57,1.754,4.127,2.735,7.4,2.838.262.009.519.012.771.012,3.672,0,6.409-.842,8.144-2.507,1.557-1.5,2.345-3.7,2.345-6.548v-.131c0-3.15,0-6.972,0-7.289-.065-3.424-3.2-7.4-10.265-7.4m-3.237,15.4a2.66,2.66,0,0,1,1.576-1.678,10.3,10.3,0,0,1,3.682-.377h1.171c0,.015,0,1.741,0,1.906l0,.125a4.44,4.44,0,0,1-.267,1.759,2.563,2.563,0,0,1-2.08,1.313,7.7,7.7,0,0,1-1.123.08c-.786,0-2.187-.129-2.748-1a2.827,2.827,0,0,1-.209-2.13" transform="translate(-31.073 -1.487)" fill="#e1231a"/>
    <path id="Path_4289" data-name="Path 4289" d="M257.6,221.861a16.306,16.306,0,0,0,8.635-2.275,1.121,1.121,0,0,0,.548-1c0-.417-.644-1.154-.644-1.154-.333-.413-.654-.837-.979-1.259a2.833,2.833,0,0,0-.927-.937c-.517-.247-1.042.064-1.5.3a10.1,10.1,0,0,1-4.984,1.088,5.131,5.131,0,0,1-1.862-.393,2.687,2.687,0,0,1-.8-.523,1.782,1.782,0,0,1-.7-1.562l.014-.923.325.012c.843.029,1.632.044,2.345.044,7.488,0,10.038-2.708,10.492-7.876a6.1,6.1,0,0,0-1.58-4.571c-1.57-1.754-4.127-2.736-7.4-2.84-.262-.008-.519-.011-.772-.011-3.672,0-6.408.842-8.142,2.507-1.557,1.5-2.347,3.7-2.347,6.547v.132c0,3.149,0,6.971,0,7.29.066,3.424,3.2,7.4,10.265,7.4m3.238-15.4a2.655,2.655,0,0,1-1.575,1.676,10.3,10.3,0,0,1-3.683.378h-1.171c0-.016,0-1.742,0-1.907v-.123a4.446,4.446,0,0,1,.267-1.76,2.567,2.567,0,0,1,2.081-1.312,7.4,7.4,0,0,1,1.122-.081c.786,0,2.188.129,2.75,1a2.831,2.831,0,0,1,.208,2.131" transform="translate(-54.779 -1.487)" fill="#e1231a"/>
    <path id="Path_4290" data-name="Path 4290" d="M340.762,198.568h-.953v-.489h2.44v.489H341.3v2.517h-.533Z" transform="translate(-85.585 -1.519)" fill="#e1231a"/>
    <path id="Path_4291" data-name="Path 4291" d="M344.485,198.078h.563l.914,1.422.915-1.422h.563v3.007h-.527v-2.156l-.95,1.417h-.017L345,198.938v2.147h-.519Z" transform="translate(-87.137 -1.519)" fill="#e1231a"/>
  </g>
</svg>
