<svg id="Group_35567" data-name="Group 35567" xmlns="http://www.w3.org/2000/svg" width="25.201" height="21.902" viewBox="0 0 25.201 21.902">
  <path id="Path_5161" data-name="Path 5161" d="M-166.757-168.252c-.792.205-1.583.419-2.378.614-1.623.4-3.242.817-4.875,1.168-.9.194-1.83.266-2.782.4v-1.373h-5.145v1.325a50.345,50.345,0,0,1-10.022-2.153v-6.191h8.314v-3.851h8.54v3.851h8.052c.1,0,.2,0,.3.007Zm-15.389-8.591v2.359h5.561v-2.359Z" transform="translate(191.958 178.315)" fill="#003b5c"/>
  <path id="Path_5162" data-name="Path 5162" d="M-154.05,13.138V23.231h-23.406V13.158c1.51.389,3,.826,4.523,1.151s3.047.535,4.6.8v1.479h5.135V15.016A45.227,45.227,0,0,0-154.05,13.138Z" transform="translate(178.351 -1.329)" fill="#003b5c"/>
  <path id="Path_5163" data-name="Path 5163" d="M-3.067,23.382H-5.221V21.944h2.154Z" transform="translate(16.739 -9.591)" fill="#003b5c"/>
</svg>
