<svg xmlns="http://www.w3.org/2000/svg" width="24.914" height="19.729" viewBox="0 0 24.914 19.729">
  <g id="Group_35573" data-name="Group 35573" transform="translate(1569 -479.925)">
    <path id="Path_5184" data-name="Path 5184" d="M-1544.086,485.541v11.631a1.5,1.5,0,0,0-.049.158,2.85,2.85,0,0,1-2.792,2.322q-9.615.007-19.231,0a2.78,2.78,0,0,1-2.277-1.153,3.489,3.489,0,0,1-.565-1.326V485.541c.016-.054.036-.107.048-.161a2.791,2.791,0,0,1,2.277-2.272,10.931,10.931,0,0,1,1.526-.061c.093,0,.186,0,.3,0,0-.364-.006-.687,0-1.01a1.05,1.05,0,0,1,.7-1.012,1.035,1.035,0,0,1,1.377.946c.012.352,0,.706,0,1.047a.455.455,0,0,0,.082.026c1.321,0,2.642.006,3.964,0a.327.327,0,0,0,.224-.163c.239-.451.453-.914.691-1.365a2.752,2.752,0,0,1,2.546-1.575q2.225-.022,4.45,0a2.756,2.756,0,0,1,2.547,1.574,9.01,9.01,0,0,1,.526,1.066.684.684,0,0,0,.777.483,2.725,2.725,0,0,1,2.612,1.654A5.736,5.736,0,0,1-1544.086,485.541Zm-8.307.621a5.18,5.18,0,0,0-5.183,5.177,5.191,5.191,0,0,0,5.188,5.2,5.2,5.2,0,0,0,5.187-5.206A5.19,5.19,0,0,0-1552.393,486.162Zm-10.913,2.068c.591,0,1.183.012,1.774-.007a1.077,1.077,0,0,0,.52-.155.733.733,0,0,0,.276-.861.8.8,0,0,0-.79-.532q-1.762-.006-3.524,0a.781.781,0,0,0-.835.789.778.778,0,0,0,.829.765C-1564.472,488.233-1563.889,488.229-1563.306,488.229Z" fill="#003b5c"/>
    <circle id="Ellipse_285" data-name="Ellipse 285" cx="4.152" cy="4.152" r="4.152" transform="translate(-1556.543 487.197)" fill="#003b5c"/>
  </g>
</svg>
