<svg xmlns="http://www.w3.org/2000/svg" width="24.356" height="38.487" viewBox="0 0 24.356 38.487">
  <g id="Group_45535" data-name="Group 45535" transform="translate(-188 -742.893)">
    <g id="Group_35563" data-name="Group 35563" transform="translate(188 742.893)">
      <path id="Path_5180" data-name="Path 5180" d="M-188.411,736.417l-.375.892-.42,1-.949-.518-.516-.281-3,8.237,2.158,5.928,3.151-5.379,5.873,2.1-4.179-11.48-.813-.229Z" transform="translate(205.914 -713.184)" fill="#003b5c"/>
      <path id="Path_5181" data-name="Path 5181" d="M-235.13,738.271l-.724-.641-.724.641-.809.717-.632-.877-.565-.786-.224.122-.434.237-.192.1-.241.132-.708.387-.419-1-.375-.892-.932.262-.891.251-3.822,10.5,5.392-1.924,2.893,4.939,1.711-4.7.26-.714.26-.715,1.951-5.359Z" transform="translate(248.031 -713.184)" fill="#003b5c"/>
      <g id="Group_35562" data-name="Group 35562">
        <path id="Path_5182" data-name="Path 5182" d="M-229.5,636.691l1.214-1.372-1.487-1.07.877-1.608-1.688-.709.5-1.763-1.8-.315.092-1.829-1.829.092-.315-1.8-1.762.5-.71-1.689-1.607.878-1.069-1.486-1.372,1.214-1.371-1.214-1.07,1.486-1.608-.878-.709,1.689-1.763-.5-.315,1.8-1.829-.092.092,1.829-1.8.315.5,1.762-1.688.709.878,1.608-1.487,1.07,1.214,1.372-1.214,1.371,1.487,1.069-.878,1.608,1.688.709-.5,1.763,1.8.314-.093,1.829,1.564-.079.266-.013.084.48.168.965.062.358,1.729-.486.034-.009.71,1.688.323-.176.433-.237.851-.464,1.07,1.487,1.371-1.215,1.372,1.215,1.069-1.487.094.051.434.237.433.237.646.352.71-1.688,1.763.5.04-.228.169-.965.107-.611.194.01,1.635.082-.092-1.829,1.8-.315-.5-1.762,1.688-.709-.877-1.608,1.487-1.069Zm-10.964,9.395a9.4,9.4,0,0,1-9.4-9.395,9.4,9.4,0,0,1,9.4-9.4,9.4,9.4,0,0,1,9.4,9.4A9.4,9.4,0,0,1-240.467,646.086Z" transform="translate(252.645 -624.513)" fill="#003b5c"/>
      </g>
    </g>
    <text id="_" data-name="$" transform="translate(195.956 759.43)" fill="#003b5c" font-size="13" font-family="SegoeUI, Segoe UI"><tspan x="0" y="0">$</tspan></text>
  </g>
</svg>
