<svg xmlns="http://www.w3.org/2000/svg" width="29.229" height="18.82" viewBox="0 0 29.229 18.82">
  <path id="Path_5186" data-name="Path 5186" d="M888,518.937v-.969a1.181,1.181,0,0,0,.048-.131,2.562,2.562,0,0,1,2.642-2.091c.589,0,1.179.006,1.769-.005a4.575,4.575,0,0,0,2.822-.923c.7-.551,1.343-1.174,1.989-1.787a8.088,8.088,0,0,1,2.679-1.9,6.848,6.848,0,0,1,7.4,1.338c.639.567,1.231,1.186,1.859,1.767a4.988,4.988,0,0,0,3.08,1.458c.8.053,1.6.025,2.393.052a2.5,2.5,0,0,1,2.307,1.495,5.449,5.449,0,0,1,.241.725v.969a2.338,2.338,0,0,0-.053.248,7.709,7.709,0,0,1-6.538,6.685,2.278,2.278,0,0,0-1.465.743,8.847,8.847,0,0,1-7.931,2.7,8.752,8.752,0,0,1-5.379-2.9,1.648,1.648,0,0,0-1.058-.534,7.642,7.642,0,0,1-6.392-5.153A13.617,13.617,0,0,1,888,518.937Zm8.634,1.918h11.952v-1.676H896.634Zm14.6,3.208a15.736,15.736,0,0,0,1.545-.8,5.812,5.812,0,0,0,2.739-4.877.853.853,0,0,0-.919-.927c-.228,0-.457.011-.684,0-.185-.012-.247.05-.3.235-.314,1.091-.6,2.194-1,3.256C912.229,521.977,911.722,522.966,911.229,524.063Zm-17.184-.045c-.054-.109-.072-.152-.1-.192a22.407,22.407,0,0,1-2.2-5.564c-.067-.264-.064-.638-.235-.759-.192-.136-.547-.047-.832-.047a.872.872,0,0,0-.969.993,5.545,5.545,0,0,0,.57,2.359A6.185,6.185,0,0,0,894.045,524.018Zm6.022-8.262v1.676h5.1v-1.676Zm0,6.838v1.685h5.1v-1.685Z" transform="translate(-888 -510.6)" fill="#003b5c"/>
</svg>
