<svg xmlns="http://www.w3.org/2000/svg" width="30.299" height="18.815" viewBox="0 0 30.299 18.815">
  <g id="Group_45570" data-name="Group 45570" transform="translate(-764.701 -955.465)">
    <g id="Group_35557" data-name="Group 35557" transform="translate(764.701 955.465)">
      <path id="Path_5166" data-name="Path 5166" d="M388,539.857a.549.549,0,0,0,.055-.1,1.812,1.812,0,0,1,1.865-1.377q3.52,0,7.04,0h19.315a1.834,1.834,0,0,1,2.025,2.037q0,2.825,0,5.649v.339H401.114a3.527,3.527,0,0,0,1.905-2.941,3.454,3.454,0,0,0-1.467-3.124,3.623,3.623,0,0,0-5.447,1.59,3.576,3.576,0,0,0-3.042-2.245,3.526,3.526,0,0,0-2.782.986,3.616,3.616,0,0,0,.833,5.755H388Z" transform="translate(-388 -538.38)" fill="#003b5c"/>
      <path id="Path_5167" data-name="Path 5167" d="M388,663.363c.482.007.964.018,1.446.019,1.173,0,2.345,0,3.518,0h.278c-.336.359-.673.7-.981,1.06a1.552,1.552,0,0,0-.344.6.87.87,0,0,0,.465.966.939.939,0,0,0,1.072-.147c.439-.411.864-.835,1.3-1.253.07-.067.143-.131.249-.226V672.3h-4.991a1.83,1.83,0,0,1-1.969-1.434c-.006-.017-.025-.029-.038-.043Z" transform="translate(-388 -653.482)" fill="#003b5c"/>
      <path id="Path_5168" data-name="Path 5168" d="M500.423,672.739V664.7c.089.078.154.127.21.186.5.52.992,1.044,1.492,1.561a.941.941,0,0,0,1.368.086.931.931,0,0,0-.03-1.37c-.337-.36-.68-.714-1.019-1.072-.064-.068-.123-.14-.216-.247H521.82c0,.1.013.207.013.31q0,3.313,0,6.626a1.82,1.82,0,0,1-1.955,1.959H500.423Zm13.423-5.45c1.094,0,2.188.006,3.282,0a.934.934,0,0,0,.978-.932.922.922,0,0,0-.945-.933q-3.311-.013-6.622,0a.92.92,0,0,0-.9.681.934.934,0,0,0,.954,1.184C511.678,667.3,512.762,667.289,513.846,667.289Zm-1.074,3.725c.719,0,1.439.005,2.158,0a.937.937,0,1,0-.007-1.869q-2.158-.007-4.316,0a1.212,1.212,0,0,0-.509.119.9.9,0,0,0-.467,1.019.926.926,0,0,0,.924.725C511.294,671.021,512.033,671.013,512.772,671.014Z" transform="translate(-491.535 -653.924)" fill="#003b5c"/>
      <path id="Path_5169" data-name="Path 5169" d="M430.939,582.489c-.439-.063-.8-.093-1.151-.171a6.778,6.778,0,0,1-2.342-1.017,1.574,1.574,0,0,1-.66-1.709,1.71,1.71,0,0,1,3.129-.531,6.277,6.277,0,0,1,.807,2.144C430.807,581.6,430.857,582,430.939,582.489Z" transform="translate(-423.687 -575.09)" fill="#003b5c"/>
      <path id="Path_5170" data-name="Path 5170" d="M502.028,582.372a8.039,8.039,0,0,1,.821-3.087,1.853,1.853,0,0,1,1.393-1.075,1.692,1.692,0,0,1,1.831,1.087,1.619,1.619,0,0,1-.648,1.993,9.377,9.377,0,0,1-2.953,1.078A2.506,2.506,0,0,1,502.028,582.372Z" transform="translate(-493.013 -575.044)" fill="#003b5c"/>
    </g>
    <rect id="Rectangle_2086" data-name="Rectangle 2086" width="15" height="7" transform="translate(778 966.913)" fill="#003b5c"/>
  </g>
</svg>
