<svg id="Group_35568" data-name="Group 35568" xmlns="http://www.w3.org/2000/svg" width="21.575" height="24.675" viewBox="0 0 21.575 24.675">
  <path id="Path_5164" data-name="Path 5164" d="M668.156-77.017a2.645,2.645,0,0,1-1.146-.759q-1.894-1.906-3.8-3.8A2.413,2.413,0,0,1,662.464-83a2.208,2.208,0,0,1,.627-1.919q2.136-2.157,4.3-4.282a1.257,1.257,0,0,1,1.261-.36,1.294,1.294,0,0,1,.888,1.273c.022.425.015.851.01,1.277,0,.142.045.188.186.21a10.093,10.093,0,0,0,6.114-.919,10.1,10.1,0,0,0,3.516-2.83c.095-.119.185-.243.29-.354a.706.706,0,0,1,.834-.176.7.7,0,0,1,.407.751,19.961,19.961,0,0,1-.481,2.181,11.813,11.813,0,0,1-3.209,5.127,11.7,11.7,0,0,1-5.146,2.9c-.734.191-1.5.276-2.245.408-.078.014-.158.021-.264.035,0,.351.021.695-.006,1.035a4.143,4.143,0,0,1-.166.914,1.194,1.194,0,0,1-.8.708Z" transform="translate(-659.339 101.692)" fill="#003b5c"/>
  <path id="Path_5165" data-name="Path 5165" d="M610.82-310a2.83,2.83,0,0,1,1.175.8q1.876,1.889,3.765,3.766a2.347,2.347,0,0,1,.746,2,2.13,2.13,0,0,1-.61,1.305c-1.439,1.446-2.88,2.89-4.337,4.317a1.222,1.222,0,0,1-1.332.327,1.259,1.259,0,0,1-.8-1.208c-.03-.432-.017-.867-.017-1.3,0-.128-.02-.2-.174-.224a10.118,10.118,0,0,0-7.081,1.453,9.884,9.884,0,0,0-2.583,2.325c-.074.095-.146.192-.224.284a.715.715,0,0,1-.841.234.717.717,0,0,1-.444-.8,16.138,16.138,0,0,1,.341-1.7,12.037,12.037,0,0,1,5.03-6.915,11.786,11.786,0,0,1,5.715-1.968c.21-.016.272-.084.262-.29-.015-.32,0-.642,0-.963a1.4,1.4,0,0,1,.971-1.444Z" transform="translate(-598.05 310)" fill="#003b5c"/>
</svg>
