<svg xmlns="http://www.w3.org/2000/svg" width="25.582" height="26.666" viewBox="0 0 25.582 26.666">
  <path id="Path_5185" data-name="Path 5185" d="M1873.253-670.508h-.729a3.029,3.029,0,0,1-1.327-.722c-.486-.484-.986-.953-1.476-1.432a.9.9,0,0,0-.8-.281c-.754.11-1.509.219-2.266.313a2.26,2.26,0,0,1-2.459-1.675c-.174-.732-.3-1.476-.413-2.22a1.1,1.1,0,0,0-.642-.9c-.583-.285-1.154-.6-1.725-.908a2.329,2.329,0,0,1-1.042-3.211q.436-.915.891-1.82a.977.977,0,0,0,0-.943q-.457-.9-.891-1.82a2.33,2.33,0,0,1,1.041-3.212c.586-.319,1.172-.637,1.769-.935a.986.986,0,0,0,.58-.773c.1-.632.233-1.261.322-1.895a2.343,2.343,0,0,1,2.623-2.1c.61.081,1.224.139,1.826.259a1.334,1.334,0,0,0,1.4-.429c.4-.447.851-.842,1.286-1.254a2.323,2.323,0,0,1,3.339,0c.5.478,1,.962,1.5,1.448a.949.949,0,0,0,.876.272c.761-.119,1.526-.226,2.293-.3a2.235,2.235,0,0,1,2.351,1.651c.179.739.3,1.493.42,2.245a1.1,1.1,0,0,0,.642.9c.583.286,1.154.6,1.725.908a2.324,2.324,0,0,1,1.043,3.21q-.435.915-.891,1.82a.979.979,0,0,0,0,.943q.456.9.891,1.82a2.324,2.324,0,0,1-1.04,3.211c-.593.323-1.189.643-1.792.947a.971.971,0,0,0-.558.76c-.1.632-.233,1.26-.323,1.894a2.341,2.341,0,0,1-2.621,2.1c-.61-.08-1.225-.136-1.827-.258a1.3,1.3,0,0,0-1.4.428c-.243.292-.551.528-.817.8A3.587,3.587,0,0,1,1873.253-670.508Zm-5.522-7.5a.938.938,0,0,0,.745-.342q4.95-4.954,9.9-9.9a2.226,2.226,0,0,0,.178-.189.754.754,0,0,0-.321-1.181.815.815,0,0,0-.927.28q-4.958,4.965-9.922,9.923a1.73,1.73,0,0,0-.177.191.725.725,0,0,0-.076.806A.722.722,0,0,0,1867.732-678.006Zm2.068-7.128a2.823,2.823,0,0,0,2.83-2.794,2.844,2.844,0,0,0-2.8-2.831,2.838,2.838,0,0,0-2.826,2.805A2.809,2.809,0,0,0,1869.8-685.134Zm6.172,2.588a2.821,2.821,0,0,0-2.823,2.8,2.845,2.845,0,0,0,2.811,2.824,2.836,2.836,0,0,0,2.818-2.812A2.808,2.808,0,0,0,1875.971-682.546Z" transform="translate(-1860.099 697.175)" fill="#003b5c"/>
</svg>
