<svg id="Group_35569" data-name="Group 35569" xmlns="http://www.w3.org/2000/svg" width="25.859" height="21.066" viewBox="0 0 25.859 21.066">
  <path id="Path_5174" data-name="Path 5174" d="M869,156.714c.23-.378.44-.77.695-1.131,1.122-1.591,2.261-3.17,3.383-4.76a1.074,1.074,0,0,1,.957-.492q7.907.01,15.814,0a1.055,1.055,0,0,1,.936.483c1.237,1.747,2.474,3.494,3.732,5.226a1.645,1.645,0,0,1,.281,1.452,3.149,3.149,0,0,1-2.264,2.425,3.1,3.1,0,0,1-3.185-.82c-.041-.039-.085-.077-.141-.129a3.244,3.244,0,0,1-4.834.009,3.282,3.282,0,0,1-4.865-.008,3.243,3.243,0,0,1-4.83.012c-.227.183-.436.377-.67.535a3.231,3.231,0,0,1-4.956-2.128c-.013-.073-.034-.145-.052-.217Z" transform="translate(-869 -150.33)" fill="#003b5c"/>
  <path id="Path_5175" data-name="Path 5175" d="M917.185,320.158v.262q0,3.973,0,7.947a1.638,1.638,0,0,1-1.77,1.786h-1.453v-8.08h-4.853v8.08H896.335a1.641,1.641,0,0,1-1.787-1.795q0-3.973,0-7.947v-.278c.249.058.479.12.712.164a4.7,4.7,0,0,0,3.138-.426.387.387,0,0,1,.395,0,4.833,4.833,0,0,0,4.442,0,.426.426,0,0,1,.419,0,4.816,4.816,0,0,0,4.419,0,.45.45,0,0,1,.443,0,4.832,4.832,0,0,0,4.42,0,.366.366,0,0,1,.372-.023,4.643,4.643,0,0,0,3.712.333A1.33,1.33,0,0,1,917.185,320.158ZM897.793,326.9h6.436v-4.83h-6.436Z" transform="translate(-892.931 -309.088)" fill="#003b5c"/>
</svg>
